<svg width="125" height="30" viewBox="0 0 125 30" fill="none" xmlns="http://www.w3.org/2000/svg">
<g clip-path="url(#clip0_2426_5934)">
<path d="M15.582 5.4682C15.2745 5.3032 14.9257 5.2207 14.5357 5.2207C14.1157 5.2207 13.752 5.3032 13.4445 5.4682C13.137 5.6332 12.897 5.8507 12.7245 6.1207C12.552 6.3907 12.4657 6.7132 12.4657 7.0882C12.4657 7.4632 12.552 7.78945 12.7245 8.06695C12.897 8.34445 13.1332 8.56945 13.4332 8.74195C13.7332 8.91445 14.0932 9.0007 14.5132 9.0007C14.9332 9.0007 15.2782 8.9182 15.5932 8.7532C15.9082 8.5882 16.1445 8.3632 16.302 8.0782C16.4595 7.7932 16.5382 7.4707 16.5382 7.1107C16.5382 6.7507 16.4557 6.40945 16.2907 6.13195C16.1257 5.85445 15.8895 5.6332 15.582 5.4682ZM12.7582 22.1407H16.2682V10.3957H12.7582V22.1407ZM41.8882 13.7032V13.6132C42.3832 13.3882 42.7957 13.122 43.1257 12.8145C43.4557 12.507 43.7032 12.1507 43.8682 11.7457C44.0332 11.3407 44.1157 10.8757 44.1157 10.3507C44.1157 9.5557 43.9245 8.8732 43.542 8.3032C43.1595 7.7332 42.6045 7.3057 41.877 7.0207C41.1495 6.7357 40.2682 6.5932 39.2332 6.5932H31.2907V22.1407H39.4132C40.4782 22.1407 41.4195 21.9607 42.237 21.6007C43.0545 21.2407 43.6957 20.7157 44.1607 20.0257C44.6257 19.3357 44.8582 18.5182 44.8582 17.5732C44.8582 16.6282 44.6032 15.7507 44.0932 15.0757C43.5832 14.4007 42.8482 13.9432 41.8882 13.7032ZM35.1607 9.4732H38.3107C38.9857 9.4732 39.507 9.61195 39.8745 9.88945C40.242 10.167 40.4257 10.5907 40.4257 11.1607C40.4257 11.5507 40.3432 11.877 40.1782 12.1395C40.0132 12.402 39.7807 12.5932 39.4807 12.7132C39.1807 12.8332 38.8207 12.8932 38.4007 12.8932H35.1607V9.4732ZM40.392 18.7545C39.9945 19.092 39.4057 19.2607 38.6257 19.2607H35.1607V15.2332H38.6482C39.3982 15.2332 39.9757 15.402 40.3807 15.7395C40.7857 16.077 40.9882 16.5832 40.9882 17.2582C40.9882 17.9332 40.7895 18.417 40.392 18.7545ZM6.90823 17.0107C6.90823 17.5657 6.85948 18.0157 6.76198 18.3607C6.66448 18.7057 6.49573 18.9682 6.25573 19.1482C6.01573 19.3282 5.67823 19.4182 5.24323 19.4182C4.62823 19.4182 4.18198 19.2382 3.90448 18.8782C3.62698 18.5182 3.48823 17.9407 3.48823 17.1457H0.000732422V17.4832C0.000732422 18.5332 0.199482 19.4332 0.596982 20.1832C0.994482 20.9332 1.58698 21.507 2.37448 21.9045C3.16198 22.302 4.13323 22.5007 5.28823 22.5007C6.54823 22.5007 7.58323 22.2945 8.39323 21.882C9.20323 21.4695 9.80323 20.8545 10.1932 20.037C10.5832 19.2195 10.7782 18.2107 10.7782 17.0107V6.5932H6.90823V17.0107ZM26.9782 10.8907C26.0632 10.3657 24.9907 10.1032 23.7607 10.1032C22.5307 10.1032 21.4807 10.3582 20.5657 10.8682C19.6507 11.3782 18.9532 12.102 18.4732 13.0395C17.9932 13.977 17.7532 15.0532 17.7532 16.2682C17.7532 17.4832 17.9932 18.5782 18.4732 19.5082C18.9532 20.4382 19.6507 21.162 20.5657 21.6795C21.4807 22.197 22.5532 22.4557 23.7832 22.4557C25.0132 22.4557 26.0782 22.197 26.9782 21.6795C27.8782 21.162 28.572 20.442 29.0595 19.5195C29.547 18.597 29.7907 17.5132 29.7907 16.2682C29.7907 15.0232 29.5507 13.9845 29.0707 13.062C28.5907 12.1395 27.8932 11.4157 26.9782 10.8907ZM25.9757 18.192C25.7882 18.7095 25.507 19.1107 25.132 19.3957C24.757 19.6807 24.307 19.8232 23.782 19.8232C23.257 19.8232 22.807 19.6807 22.432 19.3957C22.057 19.1107 21.772 18.7057 21.577 18.1807C21.382 17.6557 21.2845 17.0257 21.2845 16.2907C21.2845 15.5557 21.382 14.877 21.577 14.3445C21.772 13.812 22.057 13.407 22.432 13.1295C22.807 12.852 23.2495 12.7132 23.7595 12.7132C24.3295 12.7132 24.7982 12.8632 25.1657 13.1632C25.5332 13.4632 25.807 13.8795 25.987 14.412C26.167 14.9445 26.257 15.5707 26.257 16.2907C26.257 17.0107 26.1632 17.6745 25.9757 18.192ZM111.153 15.672C110.591 15.3795 109.897 15.1432 109.072 14.9632L107.587 14.6707C106.927 14.5357 106.451 14.367 106.158 14.1645C105.866 13.962 105.719 13.6957 105.719 13.3657C105.719 13.1407 105.791 12.9457 105.933 12.7807C106.076 12.6157 106.274 12.492 106.529 12.4095C106.784 12.327 107.084 12.2857 107.429 12.2857C107.999 12.2857 108.446 12.387 108.768 12.5895C109.091 12.792 109.274 13.0882 109.319 13.4782H112.537C112.477 12.3832 112.008 11.547 111.131 10.9695C110.253 10.392 109.027 10.1032 107.452 10.1032C106.462 10.1032 105.581 10.2307 104.808 10.4857C104.036 10.7407 103.424 11.1382 102.974 11.6782C102.524 12.2182 102.299 12.8857 102.299 13.6807C102.299 14.6107 102.596 15.342 103.188 15.8745C103.781 16.407 104.692 16.8157 105.922 17.1007L107.362 17.4157L107.609 17.4607C108.029 17.5807 108.374 17.697 108.644 17.8095C108.914 17.922 109.124 18.0645 109.274 18.237C109.424 18.4095 109.499 18.6232 109.499 18.8782C109.499 19.1632 109.413 19.3995 109.241 19.587C109.068 19.7745 108.836 19.917 108.543 20.0145C108.251 20.112 107.924 20.1607 107.564 20.1607C106.919 20.1607 106.409 20.0407 106.034 19.8007C105.659 19.5607 105.449 19.2007 105.404 18.7207H102.052C102.097 19.9807 102.611 20.9182 103.593 21.5332C104.576 22.1482 105.884 22.4557 107.519 22.4557C108.584 22.4557 109.511 22.317 110.298 22.0395C111.086 21.762 111.716 21.3345 112.188 20.757C112.661 20.1795 112.897 19.4332 112.897 18.5182C112.897 17.8582 112.747 17.292 112.447 16.8195C112.147 16.347 111.716 15.9645 111.153 15.672ZM98.5082 10.902C97.6307 10.3695 96.5545 10.1032 95.2795 10.1032C94.0945 10.1032 93.052 10.3695 92.152 10.902C91.252 11.4345 90.5545 12.1732 90.0595 13.1182C89.5645 14.0632 89.317 15.1207 89.317 16.2907C89.317 17.5657 89.5682 18.6645 90.0707 19.587C90.5732 20.5095 91.2745 21.2182 92.1745 21.7132C93.0745 22.2082 94.132 22.4557 95.347 22.4557C96.802 22.4557 98.0095 22.1445 98.9695 21.522C99.9295 20.8995 100.589 20.0107 100.949 18.8557H97.7545C97.6045 19.2157 97.3382 19.5007 96.9557 19.7107C96.5732 19.9207 96.097 20.0257 95.527 20.0257C94.927 20.0257 94.4245 19.9057 94.0195 19.6657C93.6145 19.4257 93.307 19.092 93.097 18.6645C92.892 18.247 92.7732 17.7332 92.7395 17.1232H101.174V16.6957C101.174 15.3607 100.949 14.1945 100.499 13.197C100.049 12.1995 99.3857 11.4345 98.5082 10.902ZM92.737 15.0532V15.0307C92.797 14.5057 92.9395 14.0557 93.1645 13.6807C93.3895 13.3057 93.6857 13.0207 94.0532 12.8257C94.4207 12.6307 94.8445 12.5332 95.3245 12.5332C95.8045 12.5332 96.2245 12.6345 96.5845 12.837C96.9445 13.0395 97.2257 13.332 97.4282 13.7145C97.6307 14.097 97.747 14.5432 97.777 15.0532H92.737ZM124.259 16.8195C123.959 16.347 123.528 15.9645 122.966 15.672C122.403 15.3795 121.709 15.1432 120.884 14.9632L119.399 14.6707C118.739 14.5357 118.263 14.367 117.971 14.1645C117.678 13.962 117.532 13.6957 117.532 13.3657C117.532 13.1407 117.603 12.9457 117.746 12.7807C117.888 12.6157 118.087 12.492 118.342 12.4095C118.597 12.327 118.897 12.2857 119.242 12.2857C119.812 12.2857 120.258 12.387 120.581 12.5895C120.903 12.792 121.087 13.0882 121.132 13.4782H124.349C124.289 12.3832 123.821 11.547 122.943 10.9695C122.066 10.392 120.839 10.1032 119.264 10.1032C118.274 10.1032 117.393 10.2307 116.621 10.4857C115.848 10.7407 115.237 11.1382 114.787 11.6782C114.337 12.2182 114.112 12.8857 114.112 13.6807C114.112 14.6107 114.408 15.342 115.001 15.8745C115.593 16.407 116.504 16.8157 117.734 17.1007L119.174 17.4157L119.422 17.4607C119.842 17.5807 120.187 17.697 120.457 17.8095C120.727 17.922 120.937 18.0645 121.087 18.237C121.237 18.4095 121.312 18.6232 121.312 18.8782C121.312 19.1632 121.226 19.3995 121.053 19.587C120.881 19.7745 120.648 19.917 120.356 20.0145C120.063 20.112 119.737 20.1607 119.377 20.1607C118.732 20.1607 118.222 20.0407 117.847 19.8007C117.472 19.5607 117.262 19.2007 117.217 18.7207H113.864C113.909 19.9807 114.423 20.9182 115.406 21.5332C116.388 22.1482 117.697 22.4557 119.332 22.4557C120.397 22.4557 121.323 22.317 122.111 22.0395C122.898 21.762 123.528 21.3345 124.001 20.757C124.473 20.1795 124.709 19.4332 124.709 18.5182C124.709 17.8582 124.559 17.292 124.259 16.8195ZM86.0545 10.6095C85.4545 10.272 84.7195 10.1032 83.8495 10.1032C83.0395 10.1032 82.3307 10.2645 81.7232 10.587C81.1157 10.9095 80.632 11.3782 80.272 11.9932H80.1595L80.092 10.3957H76.762V22.1407H80.272V15.4807C80.272 14.5657 80.4482 13.8945 80.8007 13.467C81.1532 13.0395 81.682 12.8257 82.387 12.8257C83.092 12.8257 83.5645 13.0432 83.8945 13.4782C84.2245 13.9132 84.3895 14.5732 84.3895 15.4582V22.1407H87.8995V14.5132C87.8995 13.5532 87.742 12.747 87.427 12.0945C87.112 11.442 86.6545 10.947 86.0545 10.6095ZM74.1407 5.4682C73.8332 5.3032 73.4845 5.2207 73.0945 5.2207C72.6745 5.2207 72.3107 5.3032 72.0032 5.4682C71.6957 5.6332 71.4557 5.8507 71.2832 6.1207C71.1107 6.3907 71.0245 6.7132 71.0245 7.0882C71.0245 7.4632 71.1107 7.78945 71.2832 8.06695C71.4557 8.34445 71.692 8.56945 71.992 8.74195C72.292 8.91445 72.652 9.0007 73.072 9.0007C73.492 9.0007 73.837 8.9182 74.152 8.7532C74.467 8.5882 74.7032 8.3632 74.8607 8.0782C75.0182 7.7932 75.097 7.4707 75.097 7.1107C75.097 6.7507 75.0145 6.40945 74.8495 6.13195C74.6845 5.85445 74.4482 5.6332 74.1407 5.4682ZM68.0207 15.672C67.4582 15.3795 66.7645 15.1432 65.9395 14.9632L64.4545 14.6707C63.7945 14.5357 63.3182 14.367 63.0257 14.1645C62.7332 13.962 62.587 13.6957 62.587 13.3657C62.587 13.1407 62.6582 12.9457 62.8007 12.7807C62.9432 12.6157 63.142 12.492 63.397 12.4095C63.652 12.327 63.952 12.2857 64.297 12.2857C64.867 12.2857 65.3132 12.387 65.6357 12.5895C65.9582 12.792 66.142 13.0882 66.187 13.4782H69.4045C69.3445 12.3832 68.8757 11.547 67.9982 10.9695C67.1207 10.392 65.8945 10.1032 64.3195 10.1032C63.3295 10.1032 62.4482 10.2307 61.6757 10.4857C60.9032 10.7407 60.292 11.1382 59.842 11.6782C59.392 12.2182 59.167 12.8857 59.167 13.6807C59.167 14.6107 59.4632 15.342 60.0557 15.8745C60.6482 16.407 61.5595 16.8157 62.7895 17.1007L64.2295 17.4157L64.477 17.4607C64.897 17.5807 65.242 17.697 65.512 17.8095C65.782 17.922 65.992 18.0645 66.142 18.237C66.292 18.4095 66.367 18.6232 66.367 18.8782C66.367 19.1632 66.2807 19.3995 66.1082 19.587C65.9357 19.7745 65.7032 19.917 65.4107 20.0145C65.1182 20.112 64.792 20.1607 64.432 20.1607C63.787 20.1607 63.277 20.0407 62.902 19.8007C62.527 19.5607 62.317 19.2007 62.272 18.7207H58.9195C58.9645 19.9807 59.4782 20.9182 60.4607 21.5332C61.4432 22.1482 62.752 22.4557 64.387 22.4557C65.452 22.4557 66.3782 22.317 67.1657 22.0395C67.9532 21.762 68.5832 21.3345 69.0557 20.757C69.5282 20.1795 69.7645 19.4332 69.7645 18.5182C69.7645 17.8582 69.6145 17.292 69.3145 16.8195C69.0145 16.347 68.5832 15.9645 68.0207 15.672ZM53.9257 16.9882C53.9257 17.9032 53.7495 18.5745 53.397 19.002C53.0445 19.4295 52.5232 19.6432 51.8332 19.6432C51.1432 19.6432 50.6145 19.4257 50.292 18.9907C49.9695 18.5557 49.8082 17.8957 49.8082 17.0107V10.3957H46.2982V17.9332C46.2982 19.4482 46.6432 20.5807 47.3332 21.3307C48.0232 22.0807 49.0582 22.4557 50.4382 22.4557C51.2182 22.4557 51.9007 22.2907 52.4857 21.9607C53.0707 21.6307 53.5582 21.1582 53.9482 20.5432H54.0382L54.0832 22.1407H57.4357V10.3957H53.9257V16.9882ZM71.317 22.1407H74.827V10.3957H71.317V22.1407Z" fill="#141414"/>
</g>
<defs>
<clipPath id="clip0_2426_5934">
<rect width="124.709" height="30" fill="white"/>
</clipPath>
</defs>
</svg>
